# xmcd CD database file
#
# Track frame offsets:
#	150
#	15438
#	28143
#	46390
#	63725
#	85645
#	103540
#	119828
#	136848
#	149698
#	169675
#	182188
#
# Disc length: 2646 seconds
#
# Revision: 2
# Processed by: cddbd v1.5.2PL0 Copyright (c) Steve Scherf et al.
# Submitted via: CDex 1.51
#
DISCID=a90a540c
DTITLE=Various Artist - Living Country Blues USA Volume 2: Blues On Highway 61
DYEAR=2008
DGENRE=Country
TTITLE0=James "Son" Thomas - Standing At The Crossroads
TTITLE1=Sam Chatmon - Stop And Listen Blues
TTITLE2=James "Son" Thomas - Bull Cow Blues
TTITLE3=James "Son" Thomas - 61 Highway Blues
TTITLE4=Walter Brown - Keep On Walkin'
TTITLE5=Joe Cooper - She Put Me Out On The Road
TTITLE6=Sam Chatmon - Sam's Blues
TTITLE7=Sam Chatmon - Black Night
TTITLE8=James "Son" Thomas and Cleveland "Broomman" Jones - Mean Ol' Frisco
TTITLE9=Sam Chatmon - My Daddy Was A Jockey
TTITLE10=Eddie Cusie - Gonna Cut You Loose
TTITLE11=Sam Chatmon - Vicksburg Blues
EXTD=YEAR: 2008
EXTT0=
EXTT1=
EXTT2=
EXTT3=
EXTT4=
EXTT5=
EXTT6=
EXTT7=
EXTT8=
EXTT9=
EXTT10=
EXTT11=
PLAYORDER=
